<?xml version="1.0" encoding="iso-8859-1"?>
<!-- Generator: Adobe Illustrator 17.1.0, SVG Export Plug-In . SVG Version: 6.00 Build 0)  -->
<!DOCTYPE svg PUBLIC "-//W3C//DTD SVG 1.1//EN" "http://www.w3.org/Graphics/SVG/1.1/DTD/svg11.dtd">
<svg version="1.1" xmlns="http://www.w3.org/2000/svg" xmlns:xlink="http://www.w3.org/1999/xlink" x="0px" y="0px"
	 viewBox="0 0 95.511 85.896" style="enable-background:new 0 0 95.511 85.896;" xml:space="preserve">
<g id="Guides">
</g>
<g id="Outer_Front">
</g>
<g id="Outer_Back">
	<g id="Signature">
	</g>
	<g>
		<path style="fill:none;stroke:#F9B6B4;stroke-width:3;stroke-miterlimit:10;" d="M43.838,48.453
			c-11.635,18.109-32.816,14.93-36.912,7.264s1.499-29.795,21.045-21.237s23.943,30.443,17.84,40.68s-25.032,0.294-13.859-11.514
			C43.45,49.179,53.928,45.963,56.477,45.688c1.262-0.136,2.511-0.36,3.7-0.803c0.914-0.382,3.807-2.366,6.393-3.068
			c7.751-4.406,17.924-14.481,14.171-23.422C76.021,7.151,52.388,4.373,51.052,24.52c0.873,8.285,11.15,29.307,11.15,29.307
			s4.596,8.146,16.904,5.962c2.86-0.607,9.12-4.516,7.255-10.62c0,0,0,0-0.001-0.001c-1.816-3.886-5.548-6.64-9.826-6.953
			c-5.552-0.406-10.01,2.142-11.817,2.956l-5.483,2.302"/>
		<path style="fill:none;stroke:#F9B6B4;stroke-width:3;stroke-miterlimit:10;" d="M64.516,48.682"/>
		<path style="fill:none;stroke:#F9B6B4;stroke-width:3;stroke-miterlimit:10;" d="M45.811,75.159"/>
		<g>
			<path style="fill:#F9B6B4;" d="M51.158,46.535c0,0,0.354,0.686,0.974,1.887c0.607,1.208,1.523,2.908,2.629,4.95
				c0.552,1.024,1.158,2.12,1.773,3.32l0.225,0.468c0.037,0.083,0.073,0.165,0.111,0.271l0.028,0.092l0.016,0.098
				c-0.021,0.05,0.067-0.018-0.072,0.33c0.183,0.069-0.57,0.289-0.47,0.245l-0.015-0.004c-0.037-0.004-0.161-0.035-0.234-0.084
				c-0.205-0.151-0.147-0.136-0.186-0.166c-0.278-0.339-0.442-0.602-0.649-0.906c-0.391-0.592-0.781-1.194-1.161-1.816
				c-0.765-1.241-1.532-2.533-2.271-3.866c-0.764-1.321-1.451-2.708-2.175-4.077c-0.673-1.394-1.375-2.774-1.986-4.172
				c-0.631-1.388-1.216-2.772-1.756-4.126c-0.275-0.675-0.525-1.347-0.768-2.014c-0.121-0.348-0.234-0.636-0.341-1.062
				c-0.007-0.035-0.013-0.048-0.023-0.133c-0.001-0.06-0.011-0.013,0.001-0.16c0.013-0.121,0.1-0.273,0.203-0.347
				c0.084-0.085,0.558-0.126,0.353-0.098c-0.021-0.001,0.089,0.013,0.174,0.055c0.083,0.036,0.171,0.111,0.209,0.157l0.057,0.078
				c0.064,0.094,0.107,0.172,0.152,0.251l0.242,0.46c0.598,1.209,1.116,2.35,1.61,3.402c0.981,2.105,1.801,3.853,2.41,5.06
				C50.817,45.842,51.158,46.535,51.158,46.535z M51.158,46.535c0,0-0.358-0.685-0.983-1.883c-0.313-0.599-0.693-1.326-1.162-2.143
				c-0.465-0.819-0.978-1.749-1.585-2.737c-0.596-0.991-1.253-2.069-1.991-3.155l-0.28-0.396c-0.046-0.062-0.095-0.125-0.134-0.166
				l-0.022-0.022c0.024,0.032,0.095,0.092,0.164,0.113c0.07,0.027,0.167,0.023,0.123,0.02c-0.213,0.029,0.244-0.028,0.328-0.097
				c0.099-0.064,0.183-0.206,0.193-0.317l0.007-0.098c-0.006-0.043,0.001-0.015,0.005-0.009c0.092,0.226,0.264,0.567,0.415,0.86
				c0.326,0.611,0.66,1.235,0.999,1.869c0.686,1.272,1.395,2.586,2.115,3.921c0.729,1.332,1.403,2.718,2.12,4.083
				c0.667,1.39,1.383,2.755,2.015,4.136c0.644,1.374,1.278,2.726,1.891,4.034c0.308,0.65,0.611,1.289,0.907,1.915
				c0.146,0.296,0.318,0.637,0.445,0.846c-0.013,0.003,0.07,0.053-0.102-0.07c-0.057-0.035-0.168-0.048-0.186-0.042l0.015,0.006
				c0.114-0.034-0.643,0.163-0.454,0.226c-0.127,0.328-0.046,0.239-0.069,0.268c0.001,0.012,0.005,0.028,0.007,0.035l-0.004-0.031
				c-0.011-0.056-0.033-0.133-0.055-0.207l-0.152-0.46c-0.433-1.24-0.91-2.408-1.352-3.477c-0.433-1.076-0.877-2.041-1.258-2.902
				c-0.377-0.863-0.737-1.601-1.031-2.209C51.495,47.23,51.158,46.535,51.158,46.535z"/>
		</g>
		<path style="fill:none;stroke:#F9B6B4;stroke-width:0.25;stroke-miterlimit:10;" d="M45.316,35.662c0,0-8.58-24.475,2.111-27.69"
			/>
		<path style="fill:none;stroke:#F9B6B4;stroke-width:0.25;stroke-miterlimit:10;" d="M45.787,37c0,0-11.46-23.266-21.243-17.886"/>
		<circle style="fill:#603913;stroke:#F9B6B4;stroke-width:2;stroke-miterlimit:10;" cx="24.147" cy="19.431" r="1.593"/>
		<circle style="fill:#603913;stroke:#F9B6B4;stroke-width:2;stroke-miterlimit:10;" cx="49.719" cy="7.16" r="1.593"/>
		<circle style="fill:#603913;stroke:#F9B6B4;stroke-width:2;stroke-miterlimit:10;" cx="62.086" cy="69.559" r="1.593"/>
	</g>
</g>
<g id="Inner">
</g>
</svg>
